<svg width="393" height="852" viewBox="0 0 393 852" xmlns="http://www.w3.org/2000/svg">
  <!-- 背景 -->
  <g id="background">
    <rect width="393" height="852" fill="#FFFFFF"/>
  </g>
  
  <!-- 状态栏 -->
  <g id="status-bar">
    <text x="20" y="20" font-family="Arial" font-size="14" font-weight="600" fill="#000000">9:41</text>
    <text x="350" y="20" font-family="Arial" font-size="12" fill="#000000">100%</text>
    <rect x="330" y="8" width="20" height="10" rx="2" fill="#000000"/>
    <rect x="355" y="10" width="2" height="6" fill="#000000"/>
  </g>
  
  <!-- 顶部导航栏 -->
  <g id="top-nav">
    <rect x="0" y="40" width="393" height="56" fill="#FFFFFF"/>
    <path d="M 20 68 L 15 63 L 15 58 L 20 53 L 25 58 L 25 63 Z" fill="#000000"/>
    <text x="50" y="72" font-family="Arial" font-size="18" font-weight="600" fill="#000000">RG 自由高达</text>
  </g>
  
  <!-- 高达图片区域 -->
  <g id="gundam-image">
    <rect x="0" y="96" width="393" height="300" fill="#F0F0F0"/>
    <!-- 图片占位 -->
    <rect x="50" y="120" width="293" height="250" rx="12" fill="#E8E8E8" stroke="#D0D0D0" stroke-width="1"/>
    <text x="196.5" y="250" font-family="Arial" font-size="14" fill="#999999" text-anchor="middle">高达模型图片</text>
    <circle cx="196.5" cy="245" r="40" fill="none" stroke="#D0D0D0" stroke-width="2"/>
    <path d="M 186.5 235 L 196.5 245 L 206.5 235" stroke="#D0D0D0" stroke-width="2" fill="none" stroke-linecap="round"/>
  </g>
  
  <!-- 板件取件表 -->
  <g id="parts-list">
    <rect x="0" y="396" width="393" height="384" fill="#FFFFFF"/>
    <text x="20" y="425" font-family="Arial" font-size="18" font-weight="600" fill="#000000">板件取件表</text>
    
    <!-- 板件卡片1 -->
    <g id="part-card-1">
      <rect x="20" y="445" width="353" height="80" rx="12" fill="#FFFFFF" stroke="#E0E0E0" stroke-width="1"/>
      <rect x="30" y="455" width="60" height="60" rx="8" fill="#F5F5F5"/>
      <text x="60" y="490" font-family="Arial" font-size="10" fill="#999999" text-anchor="middle">A板</text>
      <text x="105" y="475" font-family="Arial" font-size="16" font-weight="600" fill="#000000">A板件</text>
      <text x="105" y="495" font-family="Arial" font-size="12" fill="#666666">零件数: 15</text>
      <text x="105" y="510" font-family="Arial" font-size="12" fill="#666666">颜色: 白色</text>
      <rect x="320" y="465" width="40" height="20" rx="10" fill="#8B5CF6" fill-opacity="0.1"/>
      <text x="340" y="478" font-family="Arial" font-size="11" fill="#8B5CF6" text-anchor="middle">已取</text>
    </g>
    
    <!-- 板件卡片2 -->
    <g id="part-card-2">
      <rect x="20" y="540" width="353" height="80" rx="12" fill="#FFFFFF" stroke="#E0E0E0" stroke-width="1"/>
      <rect x="30" y="550" width="60" height="60" rx="8" fill="#F5F5F5"/>
      <text x="60" y="585" font-family="Arial" font-size="10" fill="#999999" text-anchor="middle">B板</text>
      <text x="105" y="570" font-family="Arial" font-size="16" font-weight="600" fill="#000000">B板件</text>
      <text x="105" y="590" font-family="Arial" font-size="12" fill="#666666">零件数: 12</text>
      <text x="105" y="605" font-family="Arial" font-size="12" fill="#666666">颜色: 蓝色</text>
      <rect x="320" y="560" width="40" height="20" rx="10" fill="#E0E0E0"/>
      <text x="340" y="573" font-family="Arial" font-size="11" fill="#999999" text-anchor="middle">未取</text>
    </g>
    
    <!-- 板件卡片3 -->
    <g id="part-card-3">
      <rect x="20" y="635" width="353" height="80" rx="12" fill="#FFFFFF" stroke="#E0E0E0" stroke-width="1"/>
      <rect x="30" y="645" width="60" height="60" rx="8" fill="#F5F5F5"/>
      <text x="60" y="680" font-family="Arial" font-size="10" fill="#999999" text-anchor="middle">C板</text>
      <text x="105" y="665" font-family="Arial" font-size="16" font-weight="600" fill="#000000">C板件</text>
      <text x="105" y="685" font-family="Arial" font-size="12" fill="#666666">零件数: 8</text>
      <text x="105" y="700" font-family="Arial" font-size="12" fill="#666666">颜色: 红色</text>
      <rect x="320" y="655" width="40" height="20" rx="10" fill="#E0E0E0"/>
      <text x="340" y="668" font-family="Arial" font-size="11" fill="#999999" text-anchor="middle">未取</text>
    </g>
  </g>
  
  <!-- 底部导航栏 -->
  <g id="bottom-nav">
    <rect x="0" y="780" width="393" height="72" fill="#FFFFFF" stroke="#E0E0E0" stroke-width="1"/>
    <g id="nav-home">
      <rect x="0" y="780" width="131" height="72" fill="none"/>
      <path d="M 65.5 800 L 45 820 L 45 835 L 65.5 850 L 86 835 L 86 820 Z" fill="none" stroke="#999999" stroke-width="2" stroke-linecap="round" stroke-linejoin="round"/>
      <path d="M 55 820 L 55 835 L 65.5 845 L 76 835 L 76 820" fill="#999999"/>
      <text x="65.5" y="860" font-family="Arial" font-size="12" fill="#999999" text-anchor="middle">首页</text>
    </g>
    <g id="nav-workspace">
      <rect x="131" y="780" width="131" height="72" fill="none"/>
      <rect x="171.5" y="800" width="30" height="30" rx="4" fill="none" stroke="#999999" stroke-width="1.5"/>
      <rect x="176.5" y="805" width="20" height="20" rx="2" fill="none" stroke="#999999" stroke-width="1"/>
      <text x="196.5" y="860" font-family="Arial" font-size="12" fill="#999999" text-anchor="middle">工作台</text>
    </g>
    <g id="nav-profile">
      <rect x="262" y="780" width="131" height="72" fill="none"/>
      <circle cx="327.5" cy="815" r="15" fill="none" stroke="#999999" stroke-width="1.5"/>
      <circle cx="327.5" cy="810" r="6" fill="none" stroke="#999999" stroke-width="1.5"/>
      <path d="M 315 825 Q 327.5 830 340 825" stroke="#999999" stroke-width="1.5" fill="none" stroke-linecap="round"/>
      <text x="327.5" y="860" font-family="Arial" font-size="12" fill="#999999" text-anchor="middle">我的</text>
    </g>
  </g>
</svg>








