<svg width="393" height="852" viewBox="0 0 393 852" xmlns="http://www.w3.org/2000/svg">
  <!-- 背景 -->
  <g id="background">
    <rect width="393" height="852" fill="#FFFFFF"/>
  </g>
  
  <!-- 状态栏 -->
  <g id="status-bar">
    <text x="20" y="20" font-family="Arial" font-size="14" font-weight="600" fill="#000000">9:41</text>
    <text x="350" y="20" font-family="Arial" font-size="12" fill="#000000">100%</text>
    <rect x="330" y="8" width="20" height="10" rx="2" fill="#000000"/>
    <rect x="355" y="10" width="2" height="6" fill="#000000"/>
  </g>
  
  <!-- 顶部导航栏 -->
  <g id="top-nav">
    <rect x="0" y="40" width="393" height="56" fill="#FFFFFF"/>
    <path d="M 20 68 L 15 63 L 15 58 L 20 53 L 25 58 L 25 63 Z" fill="#000000"/>
    <text x="50" y="72" font-family="Arial" font-size="18" font-weight="600" fill="#000000">搜索结果</text>
  </g>
  
  <!-- 搜索框 -->
  <g id="search-box">
    <rect x="20" y="110" width="353" height="48" rx="12" fill="#F5F5F5" fill-opacity="0.6" stroke="#E0E0E0" stroke-width="1"/>
    <circle cx="50" cy="134" r="8" fill="none" stroke="#8B5CF6" stroke-width="1.5"/>
    <path d="M 45 134 L 42 137 M 55 134 L 58 137" stroke="#8B5CF6" stroke-width="1.5" stroke-linecap="round"/>
    <text x="70" y="140" font-family="Arial" font-size="14" fill="#8B5CF6">高达模型</text>
  </g>
  
  <!-- 搜索结果列表 -->
  <g id="search-results">
    <!-- 结果项1 -->
    <g id="result-item-1">
      <rect x="20" y="180" width="353" height="120" rx="12" fill="#FFFFFF" stroke="#E0E0E0" stroke-width="1"/>
      <!-- 图片占位 -->
      <rect x="30" y="190" width="100" height="100" rx="8" fill="#E8E8E8"/>
      <text x="80" y="245" font-family="Arial" font-size="10" fill="#999999" text-anchor="middle">高达图片</text>
      <!-- 内容 -->
      <text x="145" y="210" font-family="Arial" font-size="16" font-weight="600" fill="#000000">RG 自由高达</text>
      <text x="145" y="235" font-family="Arial" font-size="12" fill="#666666">1/144比例 · 精细板件</text>
      <text x="145" y="255" font-family="Arial" font-size="12" fill="#999999">包含完整取件表</text>
      <rect x="145" y="265" width="60" height="24" rx="12" fill="#8B5CF6" fill-opacity="0.1"/>
      <text x="175" y="280" font-family="Arial" font-size="11" fill="#8B5CF6" text-anchor="middle">查看详情</text>
    </g>
    
    <!-- 结果项2 -->
    <g id="result-item-2">
      <rect x="20" y="320" width="353" height="120" rx="12" fill="#FFFFFF" stroke="#E0E0E0" stroke-width="1"/>
      <rect x="30" y="330" width="100" height="100" rx="8" fill="#E8E8E8"/>
      <text x="80" y="385" font-family="Arial" font-size="10" fill="#999999" text-anchor="middle">高达图片</text>
      <text x="145" y="350" font-family="Arial" font-size="16" font-weight="600" fill="#000000">MG 独角兽高达</text>
      <text x="145" y="375" font-family="Arial" font-size="12" fill="#666666">1/100比例 · 可动性强</text>
      <text x="145" y="395" font-family="Arial" font-size="12" fill="#999999">包含完整取件表</text>
      <rect x="145" y="405" width="60" height="24" rx="12" fill="#8B5CF6" fill-opacity="0.1"/>
      <text x="175" y="420" font-family="Arial" font-size="11" fill="#8B5CF6" text-anchor="middle">查看详情</text>
    </g>
    
    <!-- 结果项3 -->
    <g id="result-item-3">
      <rect x="20" y="460" width="353" height="120" rx="12" fill="#FFFFFF" stroke="#E0E0E0" stroke-width="1"/>
      <rect x="30" y="470" width="100" height="100" rx="8" fill="#E8E8E8"/>
      <text x="80" y="525" font-family="Arial" font-size="10" fill="#999999" text-anchor="middle">高达图片</text>
      <text x="145" y="490" font-family="Arial" font-size="16" font-weight="600" fill="#000000">HG 强袭高达</text>
      <text x="145" y="515" font-family="Arial" font-size="12" fill="#666666">1/144比例 · 入门推荐</text>
      <text x="145" y="535" font-family="Arial" font-size="12" fill="#999999">包含完整取件表</text>
      <rect x="145" y="545" width="60" height="24" rx="12" fill="#8B5CF6" fill-opacity="0.1"/>
      <text x="175" y="560" font-family="Arial" font-size="11" fill="#8B5CF6" text-anchor="middle">查看详情</text>
    </g>
  </g>
  
  <!-- 底部导航栏 -->
  <g id="bottom-nav">
    <rect x="0" y="780" width="393" height="72" fill="#FFFFFF" stroke="#E0E0E0" stroke-width="1"/>
    <g id="nav-home">
      <rect x="0" y="780" width="131" height="72" fill="none"/>
      <path d="M 65.5 800 L 45 820 L 45 835 L 65.5 850 L 86 835 L 86 820 Z" fill="none" stroke="#999999" stroke-width="2" stroke-linecap="round" stroke-linejoin="round"/>
      <path d="M 55 820 L 55 835 L 65.5 845 L 76 835 L 76 820" fill="#999999"/>
      <text x="65.5" y="860" font-family="Arial" font-size="12" fill="#999999" text-anchor="middle">首页</text>
    </g>
    <g id="nav-workspace">
      <rect x="131" y="780" width="131" height="72" fill="none"/>
      <rect x="171.5" y="800" width="30" height="30" rx="4" fill="none" stroke="#999999" stroke-width="1.5"/>
      <rect x="176.5" y="805" width="20" height="20" rx="2" fill="none" stroke="#999999" stroke-width="1"/>
      <text x="196.5" y="860" font-family="Arial" font-size="12" fill="#999999" text-anchor="middle">工作台</text>
    </g>
    <g id="nav-profile">
      <rect x="262" y="780" width="131" height="72" fill="none"/>
      <circle cx="327.5" cy="815" r="15" fill="none" stroke="#999999" stroke-width="1.5"/>
      <circle cx="327.5" cy="810" r="6" fill="none" stroke="#999999" stroke-width="1.5"/>
      <path d="M 315 825 Q 327.5 830 340 825" stroke="#999999" stroke-width="1.5" fill="none" stroke-linecap="round"/>
      <text x="327.5" y="860" font-family="Arial" font-size="12" fill="#999999" text-anchor="middle">我的</text>
    </g>
  </g>
</svg>








